<svg viewBox="0 0 617.934 122.801" xmlns="http://www.w3.org/2000/svg"><g transform="translate(-.012)"><path d="m27.2 44.5c0-5.3-19.2-16.2-23.7-13.7-4.7 2.6-4.6 25.2 0 27.4 4.2 2.1 23.7-8.7 23.7-13.7z" fill="#4ddaf2"/><path d="m607 80.5c-5.3 0-16.2 19.2-13.7 23.7 2.6 4.7 25.2 4.6 27.4 0 2-4.1-8.7-23.7-13.7-23.7z" fill="#e45b46" opacity=".5" transform="translate(-3 -66)"/><path d="m265.6 7.3c-1.8-2.2-10.2-7.3-12.8-7.3-2.5 0-11.3 5.1-12.7 7.3s-1.4 12.4 0 14.7c1.4 2.2 10.2 7.3 12.7 7.3s11.5-5.7 12.7-7.3c1.2-1.7 1.8-12.4.1-14.7z" fill="#e45b46"/><path d="m493.2 57.4c-3.2 0-12.8 7-14 10.1s3.4 15 5.3 16.4 14.7 1.5 17.2 0 6.2-13.7 5.3-16.4-10.6-10.1-13.8-10.1z" fill="#014ae3"/><path d="m137.6 122.8c-2.4-.1-14.3-11.2-14.4-14.4-.1-3 11.7-14.4 14.4-14.4 2.9 0 14.3 11.8 14.4 14.4 0 2.5-11.8 14.5-14.4 14.4z" fill="#2caf0c"/><path d="m375.5 82.6c0 9.4-6.8 16.3-16.1 16.3-9.2 0-16.5-7-16.5-16.1a16.54 16.54 0 0 1 16.3-16.5 16.175 16.175 0 0 1 16.3 16.3z" fill="#feb13c"/></g></svg>